<mxfile host="app.diagrams.net" modified="2023-11-03T23:41:43.260Z" agent="Mozilla/5.0 (Windows NT 10.0; Win64; x64) AppleWebKit/537.36 (KHTML, like Gecko) Chrome/119.0.0.0 Safari/537.36" etag="WYBrlSXZqHnGq_MfgYkY" version="21.8.0" type="device">
  <diagram name="PÃ¡gina-1" id="8vDkQ5PDtA9uC7EVB7gP">
    <mxGraphModel dx="1518" dy="1835" grid="1" gridSize="10" guides="1" tooltips="1" connect="1" arrows="1" fold="1" page="1" pageScale="1" pageWidth="827" pageHeight="1169" math="0" shadow="0">
      <root>
        <mxCell id="0" />
        <mxCell id="1" parent="0" />
        <mxCell id="0wrsLT3lpwloJT09Eiv--1" value="AWS Cloud" style="points=[[0,0],[0.25,0],[0.5,0],[0.75,0],[1,0],[1,0.25],[1,0.5],[1,0.75],[1,1],[0.75,1],[0.5,1],[0.25,1],[0,1],[0,0.75],[0,0.5],[0,0.25]];outlineConnect=0;gradientColor=none;html=1;whiteSpace=wrap;fontSize=12;fontStyle=0;container=1;pointerEvents=0;collapsible=0;recursiveResize=0;shape=mxgraph.aws4.group;grIcon=mxgraph.aws4.group_aws_cloud_alt;strokeColor=#232F3E;fillColor=none;verticalAlign=top;align=left;spacingLeft=30;fontColor=#232F3E;dashed=0;" vertex="1" parent="1">
          <mxGeometry x="90" y="50" width="970" height="510" as="geometry" />
        </mxCell>
        <mxCell id="0wrsLT3lpwloJT09Eiv--27" value="" style="rounded=0;whiteSpace=wrap;html=1;" vertex="1" parent="0wrsLT3lpwloJT09Eiv--1">
          <mxGeometry x="390" y="100" width="300" height="244" as="geometry" />
        </mxCell>
        <mxCell id="0wrsLT3lpwloJT09Eiv--4" value="" style="edgeStyle=orthogonalEdgeStyle;html=1;endArrow=block;elbow=vertical;startArrow=none;endFill=1;strokeColor=#545B64;rounded=0;" edge="1" parent="0wrsLT3lpwloJT09Eiv--1">
          <mxGeometry width="100" relative="1" as="geometry">
            <mxPoint x="-50" y="240" as="sourcePoint" />
            <mxPoint x="100" y="240" as="targetPoint" />
          </mxGeometry>
        </mxCell>
        <mxCell id="0wrsLT3lpwloJT09Eiv--5" value="&lt;font style=&quot;font-size: 14px;&quot;&gt;Incoming&lt;/font&gt;" style="text;html=1;strokeColor=none;fillColor=none;align=center;verticalAlign=middle;whiteSpace=wrap;rounded=0;" vertex="1" parent="0wrsLT3lpwloJT09Eiv--1">
          <mxGeometry x="10" y="210" width="60" height="30" as="geometry" />
        </mxCell>
        <mxCell id="0wrsLT3lpwloJT09Eiv--6" value="&lt;font style=&quot;font-size: 14px;&quot;&gt;requests&lt;/font&gt;" style="text;html=1;strokeColor=none;fillColor=none;align=center;verticalAlign=middle;whiteSpace=wrap;rounded=0;" vertex="1" parent="0wrsLT3lpwloJT09Eiv--1">
          <mxGeometry x="10" y="240" width="60" height="30" as="geometry" />
        </mxCell>
        <mxCell id="0wrsLT3lpwloJT09Eiv--8" value="&lt;font style=&quot;font-size: 14px;&quot;&gt;Application Load Balancer&lt;/font&gt;" style="text;html=1;strokeColor=none;fillColor=none;align=center;verticalAlign=middle;whiteSpace=wrap;rounded=0;" vertex="1" parent="0wrsLT3lpwloJT09Eiv--1">
          <mxGeometry x="70" y="290" width="140" height="30" as="geometry" />
        </mxCell>
        <mxCell id="0wrsLT3lpwloJT09Eiv--9" value="" style="sketch=0;outlineConnect=0;fontColor=#232F3E;gradientColor=none;fillColor=#8C4FFF;strokeColor=none;dashed=0;verticalLabelPosition=bottom;verticalAlign=top;align=center;html=1;fontSize=12;fontStyle=0;aspect=fixed;pointerEvents=1;shape=mxgraph.aws4.application_load_balancer;" vertex="1" parent="0wrsLT3lpwloJT09Eiv--1">
          <mxGeometry x="101" y="200" width="78" height="78" as="geometry" />
        </mxCell>
        <mxCell id="0wrsLT3lpwloJT09Eiv--24" value="" style="sketch=0;points=[[0,0,0],[0.25,0,0],[0.5,0,0],[0.75,0,0],[1,0,0],[0,1,0],[0.25,1,0],[0.5,1,0],[0.75,1,0],[1,1,0],[0,0.25,0],[0,0.5,0],[0,0.75,0],[1,0.25,0],[1,0.5,0],[1,0.75,0]];outlineConnect=0;fontColor=#232F3E;gradientColor=#4D72F3;gradientDirection=north;fillColor=#3334B9;strokeColor=#ffffff;dashed=0;verticalLabelPosition=bottom;verticalAlign=top;align=center;html=1;fontSize=12;fontStyle=0;aspect=fixed;shape=mxgraph.aws4.resourceIcon;resIcon=mxgraph.aws4.pinpoint;" vertex="1" parent="0wrsLT3lpwloJT09Eiv--1">
          <mxGeometry x="270" y="200" width="78" height="78" as="geometry" />
        </mxCell>
        <mxCell id="0wrsLT3lpwloJT09Eiv--25" value="" style="edgeStyle=orthogonalEdgeStyle;html=1;endArrow=block;elbow=vertical;startArrow=none;endFill=1;strokeColor=#545B64;rounded=0;" edge="1" parent="0wrsLT3lpwloJT09Eiv--1">
          <mxGeometry width="100" relative="1" as="geometry">
            <mxPoint x="179" y="240" as="sourcePoint" />
            <mxPoint x="269" y="240" as="targetPoint" />
          </mxGeometry>
        </mxCell>
        <mxCell id="0wrsLT3lpwloJT09Eiv--26" value="&lt;font style=&quot;font-size: 14px;&quot;&gt;Target group&lt;/font&gt;" style="text;html=1;strokeColor=none;fillColor=none;align=center;verticalAlign=middle;whiteSpace=wrap;rounded=0;" vertex="1" parent="0wrsLT3lpwloJT09Eiv--1">
          <mxGeometry x="239" y="278" width="140" height="30" as="geometry" />
        </mxCell>
        <mxCell id="0wrsLT3lpwloJT09Eiv--29" value="&lt;font style=&quot;font-size: 14px;&quot;&gt;ECS cluster&lt;/font&gt;" style="text;html=1;strokeColor=none;fillColor=none;align=center;verticalAlign=middle;whiteSpace=wrap;rounded=0;" vertex="1" parent="0wrsLT3lpwloJT09Eiv--1">
          <mxGeometry x="390" y="140" width="100" height="30" as="geometry" />
        </mxCell>
        <mxCell id="0wrsLT3lpwloJT09Eiv--30" value="" style="sketch=0;points=[[0,0,0],[0.25,0,0],[0.5,0,0],[0.75,0,0],[1,0,0],[0,1,0],[0.25,1,0],[0.5,1,0],[0.75,1,0],[1,1,0],[0,0.25,0],[0,0.5,0],[0,0.75,0],[1,0.25,0],[1,0.5,0],[1,0.75,0]];outlineConnect=0;fontColor=#232F3E;fillColor=#ED7100;strokeColor=#ffffff;dashed=0;verticalLabelPosition=bottom;verticalAlign=top;align=center;html=1;fontSize=12;fontStyle=0;aspect=fixed;shape=mxgraph.aws4.resourceIcon;resIcon=mxgraph.aws4.ecs;" vertex="1" parent="0wrsLT3lpwloJT09Eiv--1">
          <mxGeometry x="470" y="200" width="78" height="78" as="geometry" />
        </mxCell>
        <mxCell id="0wrsLT3lpwloJT09Eiv--31" value="&lt;font style=&quot;font-size: 14px;&quot;&gt;Parking meter Service&lt;/font&gt;" style="text;html=1;strokeColor=none;fillColor=none;align=center;verticalAlign=middle;whiteSpace=wrap;rounded=0;" vertex="1" parent="0wrsLT3lpwloJT09Eiv--1">
          <mxGeometry x="459" y="290" width="100" height="30" as="geometry" />
        </mxCell>
        <mxCell id="0wrsLT3lpwloJT09Eiv--32" value="" style="edgeStyle=orthogonalEdgeStyle;html=1;endArrow=block;elbow=vertical;startArrow=none;endFill=1;strokeColor=#545B64;rounded=0;exitX=1;exitY=0.5;exitDx=0;exitDy=0;exitPerimeter=0;entryX=0;entryY=0.5;entryDx=0;entryDy=0;entryPerimeter=0;" edge="1" parent="0wrsLT3lpwloJT09Eiv--1" source="0wrsLT3lpwloJT09Eiv--24" target="0wrsLT3lpwloJT09Eiv--30">
          <mxGeometry width="100" relative="1" as="geometry">
            <mxPoint x="420" y="241" as="sourcePoint" />
            <mxPoint x="470" y="241" as="targetPoint" />
          </mxGeometry>
        </mxCell>
        <mxCell id="0wrsLT3lpwloJT09Eiv--34" value="" style="sketch=0;outlineConnect=0;fontColor=#232F3E;gradientColor=none;fillColor=#ED7100;strokeColor=none;dashed=0;verticalLabelPosition=bottom;verticalAlign=top;align=center;html=1;fontSize=12;fontStyle=0;aspect=fixed;pointerEvents=1;shape=mxgraph.aws4.ecs_task;" vertex="1" parent="0wrsLT3lpwloJT09Eiv--1">
          <mxGeometry x="610" y="215" width="37" height="48" as="geometry" />
        </mxCell>
        <mxCell id="0wrsLT3lpwloJT09Eiv--35" value="" style="edgeStyle=orthogonalEdgeStyle;html=1;endArrow=block;elbow=vertical;startArrow=none;endFill=1;strokeColor=#545B64;rounded=0;exitX=1;exitY=0.5;exitDx=0;exitDy=0;exitPerimeter=0;entryX=0.059;entryY=0.513;entryDx=0;entryDy=0;entryPerimeter=0;" edge="1" parent="0wrsLT3lpwloJT09Eiv--1" source="0wrsLT3lpwloJT09Eiv--30" target="0wrsLT3lpwloJT09Eiv--34">
          <mxGeometry width="100" relative="1" as="geometry">
            <mxPoint x="570" y="240" as="sourcePoint" />
            <mxPoint x="610" y="240" as="targetPoint" />
          </mxGeometry>
        </mxCell>
        <mxCell id="0wrsLT3lpwloJT09Eiv--36" value="&lt;font style=&quot;font-size: 14px;&quot;&gt;Parking meter Task&lt;/font&gt;" style="text;html=1;strokeColor=none;fillColor=none;align=center;verticalAlign=middle;whiteSpace=wrap;rounded=0;" vertex="1" parent="0wrsLT3lpwloJT09Eiv--1">
          <mxGeometry x="578.5" y="270" width="100" height="30" as="geometry" />
        </mxCell>
        <mxCell id="0wrsLT3lpwloJT09Eiv--37" value="" style="sketch=0;points=[[0,0,0],[0.25,0,0],[0.5,0,0],[0.75,0,0],[1,0,0],[0,1,0],[0.25,1,0],[0.5,1,0],[0.75,1,0],[1,1,0],[0,0.25,0],[0,0.5,0],[0,0.75,0],[1,0.25,0],[1,0.5,0],[1,0.75,0]];outlineConnect=0;fontColor=#232F3E;fillColor=#ED7100;strokeColor=#ffffff;dashed=0;verticalLabelPosition=bottom;verticalAlign=top;align=center;html=1;fontSize=12;fontStyle=0;aspect=fixed;shape=mxgraph.aws4.resourceIcon;resIcon=mxgraph.aws4.ecr;" vertex="1" parent="0wrsLT3lpwloJT09Eiv--1">
          <mxGeometry x="470" y="392" width="78" height="78" as="geometry" />
        </mxCell>
        <mxCell id="0wrsLT3lpwloJT09Eiv--38" value="&lt;font style=&quot;font-size: 14px;&quot;&gt;Amazon ECR&lt;/font&gt;" style="text;html=1;strokeColor=none;fillColor=none;align=center;verticalAlign=middle;whiteSpace=wrap;rounded=0;" vertex="1" parent="0wrsLT3lpwloJT09Eiv--1">
          <mxGeometry x="439" y="470" width="140" height="30" as="geometry" />
        </mxCell>
        <mxCell id="0wrsLT3lpwloJT09Eiv--39" value="" style="edgeStyle=orthogonalEdgeStyle;html=1;endArrow=block;elbow=vertical;startArrow=none;endFill=1;strokeColor=#545B64;rounded=0;entryX=0.5;entryY=0;entryDx=0;entryDy=0;entryPerimeter=0;exitX=0.397;exitY=0.981;exitDx=0;exitDy=0;exitPerimeter=0;" edge="1" parent="0wrsLT3lpwloJT09Eiv--1" source="0wrsLT3lpwloJT09Eiv--27" target="0wrsLT3lpwloJT09Eiv--37">
          <mxGeometry width="100" relative="1" as="geometry">
            <mxPoint x="509" y="350" as="sourcePoint" />
            <mxPoint x="410" y="390" as="targetPoint" />
            <Array as="points" />
          </mxGeometry>
        </mxCell>
        <mxCell id="0wrsLT3lpwloJT09Eiv--40" value="" style="sketch=0;points=[[0,0,0],[0.25,0,0],[0.5,0,0],[0.75,0,0],[1,0,0],[0,1,0],[0.25,1,0],[0.5,1,0],[0.75,1,0],[1,1,0],[0,0.25,0],[0,0.5,0],[0,0.75,0],[1,0.25,0],[1,0.5,0],[1,0.75,0]];outlineConnect=0;fontColor=#232F3E;fillColor=#C925D1;strokeColor=#ffffff;dashed=0;verticalLabelPosition=bottom;verticalAlign=top;align=center;html=1;fontSize=12;fontStyle=0;aspect=fixed;shape=mxgraph.aws4.resourceIcon;resIcon=mxgraph.aws4.codepipeline;" vertex="1" parent="0wrsLT3lpwloJT09Eiv--1">
          <mxGeometry x="800" y="200" width="78" height="78" as="geometry" />
        </mxCell>
        <mxCell id="0wrsLT3lpwloJT09Eiv--41" value="" style="sketch=0;points=[[0,0,0],[0.25,0,0],[0.5,0,0],[0.75,0,0],[1,0,0],[0,1,0],[0.25,1,0],[0.5,1,0],[0.75,1,0],[1,1,0],[0,0.25,0],[0,0.5,0],[0,0.75,0],[1,0.25,0],[1,0.5,0],[1,0.75,0]];outlineConnect=0;fontColor=#232F3E;fillColor=#C925D1;strokeColor=#ffffff;dashed=0;verticalLabelPosition=bottom;verticalAlign=top;align=center;html=1;fontSize=12;fontStyle=0;aspect=fixed;shape=mxgraph.aws4.resourceIcon;resIcon=mxgraph.aws4.codebuild;" vertex="1" parent="0wrsLT3lpwloJT09Eiv--1">
          <mxGeometry x="800" y="392" width="78" height="78" as="geometry" />
        </mxCell>
        <mxCell id="0wrsLT3lpwloJT09Eiv--43" value="&lt;font style=&quot;font-size: 14px;&quot;&gt;Code Pipeline&lt;/font&gt;" style="text;html=1;strokeColor=none;fillColor=none;align=center;verticalAlign=middle;whiteSpace=wrap;rounded=0;" vertex="1" parent="0wrsLT3lpwloJT09Eiv--1">
          <mxGeometry x="789" y="278" width="100" height="30" as="geometry" />
        </mxCell>
        <mxCell id="0wrsLT3lpwloJT09Eiv--44" value="&lt;font style=&quot;font-size: 14px;&quot;&gt;Code Build&lt;/font&gt;" style="text;html=1;strokeColor=none;fillColor=none;align=center;verticalAlign=middle;whiteSpace=wrap;rounded=0;" vertex="1" parent="0wrsLT3lpwloJT09Eiv--1">
          <mxGeometry x="789" y="470" width="100" height="30" as="geometry" />
        </mxCell>
        <mxCell id="0wrsLT3lpwloJT09Eiv--46" value="" style="edgeStyle=orthogonalEdgeStyle;html=1;endArrow=none;elbow=vertical;startArrow=block;startFill=1;strokeColor=#545B64;rounded=0;exitX=1;exitY=0.5;exitDx=0;exitDy=0;exitPerimeter=0;" edge="1" parent="0wrsLT3lpwloJT09Eiv--1" source="0wrsLT3lpwloJT09Eiv--37">
          <mxGeometry width="100" relative="1" as="geometry">
            <mxPoint x="700" y="430.5" as="sourcePoint" />
            <mxPoint x="800" y="430.5" as="targetPoint" />
          </mxGeometry>
        </mxCell>
        <mxCell id="0wrsLT3lpwloJT09Eiv--47" value="" style="edgeStyle=orthogonalEdgeStyle;html=1;endArrow=none;elbow=vertical;startArrow=block;startFill=1;strokeColor=#545B64;rounded=0;exitX=1;exitY=0.5;exitDx=0;exitDy=0;exitPerimeter=0;" edge="1" parent="0wrsLT3lpwloJT09Eiv--1">
          <mxGeometry width="100" relative="1" as="geometry">
            <mxPoint x="690" y="239.5" as="sourcePoint" />
            <mxPoint x="800" y="240" as="targetPoint" />
          </mxGeometry>
        </mxCell>
        <mxCell id="0wrsLT3lpwloJT09Eiv--49" value="" style="edgeStyle=orthogonalEdgeStyle;html=1;endArrow=none;elbow=vertical;startArrow=block;startFill=1;strokeColor=#545B64;rounded=0;exitX=0.5;exitY=0;exitDx=0;exitDy=0;exitPerimeter=0;entryX=0.5;entryY=0;entryDx=0;entryDy=0;" edge="1" parent="0wrsLT3lpwloJT09Eiv--1" source="0wrsLT3lpwloJT09Eiv--41" target="0wrsLT3lpwloJT09Eiv--43">
          <mxGeometry width="100" relative="1" as="geometry">
            <mxPoint x="660" y="350.5" as="sourcePoint" />
            <mxPoint x="912" y="350" as="targetPoint" />
            <Array as="points">
              <mxPoint x="839" y="330" />
              <mxPoint x="839" y="330" />
            </Array>
          </mxGeometry>
        </mxCell>
        <mxCell id="0wrsLT3lpwloJT09Eiv--50" value="&lt;font style=&quot;font-size: 14px;&quot;&gt;Deploy&lt;/font&gt;" style="text;html=1;strokeColor=none;fillColor=none;align=center;verticalAlign=middle;whiteSpace=wrap;rounded=0;" vertex="1" parent="0wrsLT3lpwloJT09Eiv--1">
          <mxGeometry x="670" y="210" width="140" height="30" as="geometry" />
        </mxCell>
        <mxCell id="0wrsLT3lpwloJT09Eiv--55" value="" style="sketch=0;points=[[0,0,0],[0.25,0,0],[0.5,0,0],[0.75,0,0],[1,0,0],[0,1,0],[0.25,1,0],[0.5,1,0],[0.75,1,0],[1,1,0],[0,0.25,0],[0,0.5,0],[0,0.75,0],[1,0.25,0],[1,0.5,0],[1,0.75,0]];points=[[0,0,0],[0.25,0,0],[0.5,0,0],[0.75,0,0],[1,0,0],[0,1,0],[0.25,1,0],[0.5,1,0],[0.75,1,0],[1,1,0],[0,0.25,0],[0,0.5,0],[0,0.75,0],[1,0.25,0],[1,0.5,0],[1,0.75,0]];outlineConnect=0;fontColor=#232F3E;fillColor=#E7157B;strokeColor=#ffffff;dashed=0;verticalLabelPosition=bottom;verticalAlign=top;align=center;html=1;fontSize=12;fontStyle=0;aspect=fixed;shape=mxgraph.aws4.resourceIcon;resIcon=mxgraph.aws4.cloudwatch_2;" vertex="1" parent="0wrsLT3lpwloJT09Eiv--1">
          <mxGeometry x="599.5" y="10" width="58" height="58" as="geometry" />
        </mxCell>
        <mxCell id="0wrsLT3lpwloJT09Eiv--57" value="&lt;font style=&quot;font-size: 14px;&quot;&gt;CloudWatch&lt;/font&gt;" style="text;html=1;strokeColor=none;fillColor=none;align=center;verticalAlign=middle;whiteSpace=wrap;rounded=0;" vertex="1" parent="0wrsLT3lpwloJT09Eiv--1">
          <mxGeometry x="578.5" y="68" width="100" height="30" as="geometry" />
        </mxCell>
        <mxCell id="0wrsLT3lpwloJT09Eiv--58" value="" style="sketch=0;points=[[0,0,0],[0.25,0,0],[0.5,0,0],[0.75,0,0],[1,0,0],[0,1,0],[0.25,1,0],[0.5,1,0],[0.75,1,0],[1,1,0],[0,0.25,0],[0,0.5,0],[0,0.75,0],[1,0.25,0],[1,0.5,0],[1,0.75,0]];outlineConnect=0;fontColor=#232F3E;fillColor=#ED7100;strokeColor=#ffffff;dashed=0;verticalLabelPosition=bottom;verticalAlign=top;align=center;html=1;fontSize=12;fontStyle=0;aspect=fixed;shape=mxgraph.aws4.resourceIcon;resIcon=mxgraph.aws4.auto_scaling3;" vertex="1" parent="0wrsLT3lpwloJT09Eiv--1">
          <mxGeometry x="800" y="5" width="68" height="68" as="geometry" />
        </mxCell>
        <mxCell id="0wrsLT3lpwloJT09Eiv--59" value="" style="edgeStyle=orthogonalEdgeStyle;html=1;endArrow=openThin;elbow=vertical;startArrow=none;endFill=0;strokeColor=#545B64;rounded=0;exitX=1;exitY=0;exitDx=0;exitDy=0;exitPerimeter=0;entryX=0;entryY=0.5;entryDx=0;entryDy=0;entryPerimeter=0;" edge="1" parent="0wrsLT3lpwloJT09Eiv--1" source="0wrsLT3lpwloJT09Eiv--30" target="0wrsLT3lpwloJT09Eiv--55">
          <mxGeometry width="100" relative="1" as="geometry">
            <mxPoint x="539.41" y="279.5" as="sourcePoint" />
            <mxPoint x="539.41" y="30.5" as="targetPoint" />
          </mxGeometry>
        </mxCell>
        <mxCell id="0wrsLT3lpwloJT09Eiv--92" value="&lt;font style=&quot;font-size: 14px;&quot;&gt;Auto Scaling&lt;/font&gt;" style="text;html=1;strokeColor=none;fillColor=none;align=center;verticalAlign=middle;whiteSpace=wrap;rounded=0;" vertex="1" parent="0wrsLT3lpwloJT09Eiv--1">
          <mxGeometry x="784" y="73" width="100" height="30" as="geometry" />
        </mxCell>
        <mxCell id="0wrsLT3lpwloJT09Eiv--93" value="" style="edgeStyle=orthogonalEdgeStyle;html=1;endArrow=block;elbow=vertical;startArrow=none;endFill=1;strokeColor=#545B64;rounded=0;entryX=0;entryY=0.5;entryDx=0;entryDy=0;entryPerimeter=0;" edge="1" parent="0wrsLT3lpwloJT09Eiv--1" target="0wrsLT3lpwloJT09Eiv--58">
          <mxGeometry width="100" relative="1" as="geometry">
            <mxPoint x="657.5" y="38.41" as="sourcePoint" />
            <mxPoint x="747.5" y="38.41" as="targetPoint" />
          </mxGeometry>
        </mxCell>
        <mxCell id="0wrsLT3lpwloJT09Eiv--95" value="&lt;font style=&quot;font-size: 14px;&quot;&gt;Alarm&lt;/font&gt;" style="text;html=1;strokeColor=none;fillColor=none;align=center;verticalAlign=middle;whiteSpace=wrap;rounded=0;" vertex="1" parent="0wrsLT3lpwloJT09Eiv--1">
          <mxGeometry x="690" y="10" width="80" height="30" as="geometry" />
        </mxCell>
        <mxCell id="0wrsLT3lpwloJT09Eiv--42" value="" style="shape=image;html=1;verticalAlign=top;verticalLabelPosition=bottom;labelBackgroundColor=#ffffff;imageAspect=0;aspect=fixed;image=https://cdn1.iconfinder.com/data/icons/unicons-line-vol-3/24/github-128.png" vertex="1" parent="1">
          <mxGeometry x="1100" y="225" width="128" height="128" as="geometry" />
        </mxCell>
        <mxCell id="0wrsLT3lpwloJT09Eiv--45" value="&lt;font style=&quot;font-size: 14px;&quot;&gt;GitHub Repository&lt;/font&gt;" style="text;html=1;strokeColor=none;fillColor=none;align=center;verticalAlign=middle;whiteSpace=wrap;rounded=0;" vertex="1" parent="1">
          <mxGeometry x="1114" y="344" width="100" height="30" as="geometry" />
        </mxCell>
        <mxCell id="0wrsLT3lpwloJT09Eiv--48" value="" style="edgeStyle=orthogonalEdgeStyle;html=1;endArrow=none;elbow=vertical;startArrow=block;startFill=1;strokeColor=#545B64;rounded=0;exitX=1;exitY=0.5;exitDx=0;exitDy=0;exitPerimeter=0;entryX=0;entryY=0.5;entryDx=0;entryDy=0;" edge="1" parent="1" source="0wrsLT3lpwloJT09Eiv--40" target="0wrsLT3lpwloJT09Eiv--42">
          <mxGeometry width="100" relative="1" as="geometry">
            <mxPoint x="1000" y="290" as="sourcePoint" />
            <mxPoint x="1110" y="290.5" as="targetPoint" />
          </mxGeometry>
        </mxCell>
        <mxCell id="0wrsLT3lpwloJT09Eiv--51" value="" style="dashed=0;outlineConnect=0;html=1;align=center;labelPosition=center;verticalLabelPosition=bottom;verticalAlign=top;shape=mxgraph.webicons.mongodb;gradientColor=#DFDEDE" vertex="1" parent="1">
          <mxGeometry x="561.2" y="-57.4" width="80" height="62.4" as="geometry" />
        </mxCell>
        <mxCell id="0wrsLT3lpwloJT09Eiv--52" value="&lt;font style=&quot;font-size: 14px;&quot;&gt;Mongodb&lt;/font&gt;" style="text;html=1;strokeColor=none;fillColor=none;align=center;verticalAlign=middle;whiteSpace=wrap;rounded=0;" vertex="1" parent="1">
          <mxGeometry x="531.2" y="10" width="140" height="30" as="geometry" />
        </mxCell>
        <mxCell id="0wrsLT3lpwloJT09Eiv--54" value="" style="edgeStyle=orthogonalEdgeStyle;html=1;endArrow=openThin;elbow=vertical;startArrow=none;endFill=0;strokeColor=#545B64;rounded=0;exitX=0.5;exitY=0;exitDx=0;exitDy=0;exitPerimeter=0;entryX=0.469;entryY=0.94;entryDx=0;entryDy=0;entryPerimeter=0;" edge="1" parent="1" source="0wrsLT3lpwloJT09Eiv--30" target="0wrsLT3lpwloJT09Eiv--51">
          <mxGeometry width="100" relative="1" as="geometry">
            <mxPoint x="549" y="130" as="sourcePoint" />
            <mxPoint x="649" y="130" as="targetPoint" />
          </mxGeometry>
        </mxCell>
      </root>
    </mxGraphModel>
  </diagram>
</mxfile>
